<svg xmlns="http://www.w3.org/2000/svg" xmlns:xlink="http://www.w3.org/1999/xlink" width="600" height="400" viewBox="0 0 2400 1600">
<defs>
  <clipPath id="clip090">
    <rect x="0" y="0" width="2400" height="1600"></rect>
  </clipPath>
</defs>
<path clip-path="url(#clip090)" d="M0 1600 L2400 1600 L2400 0 L0 0  Z" fill="#ffffff" fill-rule="evenodd" fill-opacity="1"></path>
<defs>
  <clipPath id="clip091">
    <rect x="480" y="0" width="1681" height="1600"></rect>
  </clipPath>
</defs>
<path clip-path="url(#clip090)" d="M249.704 1423.18 L2352.76 1423.18 L2352.76 47.2441 L249.704 47.2441  Z" fill="#ffffff" fill-rule="evenodd" fill-opacity="1"></path>
<defs>
  <clipPath id="clip092">
    <rect x="249" y="47" width="2104" height="1377"></rect>
  </clipPath>
</defs>
<polyline clip-path="url(#clip092)" style="stroke:#000000; stroke-linecap:round; stroke-linejoin:round; stroke-width:2; stroke-opacity:0.1; fill:none" points="249.704,1423.18 249.704,47.2441 "></polyline>
<polyline clip-path="url(#clip092)" style="stroke:#000000; stroke-linecap:round; stroke-linejoin:round; stroke-width:2; stroke-opacity:0.1; fill:none" points="950.721,1423.18 950.721,47.2441 "></polyline>
<polyline clip-path="url(#clip092)" style="stroke:#000000; stroke-linecap:round; stroke-linejoin:round; stroke-width:2; stroke-opacity:0.1; fill:none" points="1651.74,1423.18 1651.74,47.2441 "></polyline>
<polyline clip-path="url(#clip092)" style="stroke:#000000; stroke-linecap:round; stroke-linejoin:round; stroke-width:2; stroke-opacity:0.1; fill:none" points="2352.76,1423.18 2352.76,47.2441 "></polyline>
<polyline clip-path="url(#clip090)" style="stroke:#000000; stroke-linecap:round; stroke-linejoin:round; stroke-width:4; stroke-opacity:1; fill:none" points="249.704,1423.18 2352.76,1423.18 "></polyline>
<polyline clip-path="url(#clip090)" style="stroke:#000000; stroke-linecap:round; stroke-linejoin:round; stroke-width:4; stroke-opacity:1; fill:none" points="249.704,1423.18 249.704,1404.28 "></polyline>
<polyline clip-path="url(#clip090)" style="stroke:#000000; stroke-linecap:round; stroke-linejoin:round; stroke-width:4; stroke-opacity:1; fill:none" points="950.721,1423.18 950.721,1404.28 "></polyline>
<polyline clip-path="url(#clip090)" style="stroke:#000000; stroke-linecap:round; stroke-linejoin:round; stroke-width:4; stroke-opacity:1; fill:none" points="1651.74,1423.18 1651.74,1404.28 "></polyline>
<polyline clip-path="url(#clip090)" style="stroke:#000000; stroke-linecap:round; stroke-linejoin:round; stroke-width:4; stroke-opacity:1; fill:none" points="2352.76,1423.18 2352.76,1404.28 "></polyline>
<path clip-path="url(#clip090)" d="M249.704 1454.1 Q246.093 1454.1 244.264 1457.66 Q242.459 1461.2 242.459 1468.33 Q242.459 1475.44 244.264 1479.01 Q246.093 1482.55 249.704 1482.55 Q253.338 1482.55 255.144 1479.01 Q256.973 1475.44 256.973 1468.33 Q256.973 1461.2 255.144 1457.66 Q253.338 1454.1 249.704 1454.1 M249.704 1450.39 Q255.514 1450.39 258.57 1455 Q261.648 1459.58 261.648 1468.33 Q261.648 1477.06 258.57 1481.67 Q255.514 1486.25 249.704 1486.25 Q243.894 1486.25 240.815 1481.67 Q237.76 1477.06 237.76 1468.33 Q237.76 1459.58 240.815 1455 Q243.894 1450.39 249.704 1450.39 Z" fill="#000000" fill-rule="nonzero" fill-opacity="1"></path><path clip-path="url(#clip090)" d="M939.564 1466.95 Q942.92 1467.66 944.795 1469.93 Q946.694 1472.2 946.694 1475.53 Q946.694 1480.65 943.175 1483.45 Q939.657 1486.25 933.175 1486.25 Q930.999 1486.25 928.684 1485.81 Q926.393 1485.39 923.939 1484.54 L923.939 1480.02 Q925.884 1481.16 928.198 1481.74 Q930.513 1482.32 933.036 1482.32 Q937.434 1482.32 939.726 1480.58 Q942.041 1478.84 942.041 1475.53 Q942.041 1472.48 939.888 1470.77 Q937.758 1469.03 933.939 1469.03 L929.911 1469.03 L929.911 1465.19 L934.124 1465.19 Q937.573 1465.19 939.402 1463.82 Q941.231 1462.43 941.231 1459.84 Q941.231 1457.18 939.333 1455.77 Q937.458 1454.33 933.939 1454.33 Q932.018 1454.33 929.819 1454.75 Q927.62 1455.16 924.981 1456.04 L924.981 1451.88 Q927.643 1451.14 929.958 1450.77 Q932.296 1450.39 934.356 1450.39 Q939.68 1450.39 942.782 1452.83 Q945.883 1455.23 945.883 1459.35 Q945.883 1462.22 944.24 1464.21 Q942.596 1466.18 939.564 1466.95 Z" fill="#000000" fill-rule="nonzero" fill-opacity="1"></path><path clip-path="url(#clip090)" d="M965.559 1454.1 Q961.948 1454.1 960.119 1457.66 Q958.314 1461.2 958.314 1468.33 Q958.314 1475.44 960.119 1479.01 Q961.948 1482.55 965.559 1482.55 Q969.193 1482.55 970.999 1479.01 Q972.828 1475.44 972.828 1468.33 Q972.828 1461.2 970.999 1457.66 Q969.193 1454.1 965.559 1454.1 M965.559 1450.39 Q971.369 1450.39 974.425 1455 Q977.504 1459.58 977.504 1468.33 Q977.504 1477.06 974.425 1481.67 Q971.369 1486.25 965.559 1486.25 Q959.749 1486.25 956.67 1481.67 Q953.615 1477.06 953.615 1468.33 Q953.615 1459.58 956.67 1455 Q959.749 1450.39 965.559 1450.39 Z" fill="#000000" fill-rule="nonzero" fill-opacity="1"></path><path clip-path="url(#clip090)" d="M1637.14 1466.44 Q1634 1466.44 1632.14 1468.59 Q1630.32 1470.74 1630.32 1474.49 Q1630.32 1478.22 1632.14 1480.39 Q1634 1482.55 1637.14 1482.55 Q1640.29 1482.55 1642.12 1480.39 Q1643.97 1478.22 1643.97 1474.49 Q1643.97 1470.74 1642.12 1468.59 Q1640.29 1466.44 1637.14 1466.44 M1646.43 1451.78 L1646.43 1456.04 Q1644.67 1455.21 1642.86 1454.77 Q1641.08 1454.33 1639.32 1454.33 Q1634.69 1454.33 1632.24 1457.45 Q1629.81 1460.58 1629.46 1466.9 Q1630.82 1464.89 1632.88 1463.82 Q1634.94 1462.73 1637.42 1462.73 Q1642.63 1462.73 1645.64 1465.9 Q1648.67 1469.05 1648.67 1474.49 Q1648.67 1479.82 1645.52 1483.03 Q1642.38 1486.25 1637.14 1486.25 Q1631.15 1486.25 1627.98 1481.67 Q1624.81 1477.06 1624.81 1468.33 Q1624.81 1460.14 1628.69 1455.28 Q1632.58 1450.39 1639.13 1450.39 Q1640.89 1450.39 1642.68 1450.74 Q1644.48 1451.09 1646.43 1451.78 Z" fill="#000000" fill-rule="nonzero" fill-opacity="1"></path><path clip-path="url(#clip090)" d="M1666.73 1454.1 Q1663.12 1454.1 1661.29 1457.66 Q1659.48 1461.2 1659.48 1468.33 Q1659.48 1475.44 1661.29 1479.01 Q1663.12 1482.55 1666.73 1482.55 Q1670.36 1482.55 1672.17 1479.01 Q1674 1475.44 1674 1468.33 Q1674 1461.2 1672.17 1457.66 Q1670.36 1454.1 1666.73 1454.1 M1666.73 1450.39 Q1672.54 1450.39 1675.59 1455 Q1678.67 1459.58 1678.67 1468.33 Q1678.67 1477.06 1675.59 1481.67 Q1672.54 1486.25 1666.73 1486.25 Q1660.92 1486.25 1657.84 1481.67 Q1654.78 1477.06 1654.78 1468.33 Q1654.78 1459.58 1657.84 1455 Q1660.92 1450.39 1666.73 1450.39 Z" fill="#000000" fill-rule="nonzero" fill-opacity="1"></path><path clip-path="url(#clip090)" d="M2327.88 1484.86 L2327.88 1480.6 Q2329.64 1481.44 2331.45 1481.88 Q2333.25 1482.32 2334.99 1482.32 Q2339.62 1482.32 2342.05 1479.21 Q2344.5 1476.09 2344.85 1469.75 Q2343.51 1471.74 2341.45 1472.8 Q2339.39 1473.87 2336.89 1473.87 Q2331.7 1473.87 2328.67 1470.74 Q2325.66 1467.59 2325.66 1462.15 Q2325.66 1456.83 2328.81 1453.61 Q2331.96 1450.39 2337.19 1450.39 Q2343.18 1450.39 2346.33 1455 Q2349.5 1459.58 2349.5 1468.33 Q2349.5 1476.51 2345.61 1481.39 Q2341.75 1486.25 2335.2 1486.25 Q2333.44 1486.25 2331.63 1485.9 Q2329.83 1485.56 2327.88 1484.86 M2337.19 1470.21 Q2340.34 1470.21 2342.17 1468.06 Q2344.02 1465.9 2344.02 1462.15 Q2344.02 1458.43 2342.17 1456.27 Q2340.34 1454.1 2337.19 1454.1 Q2334.04 1454.1 2332.19 1456.27 Q2330.36 1458.43 2330.36 1462.15 Q2330.36 1465.9 2332.19 1468.06 Q2334.04 1470.21 2337.19 1470.21 Z" fill="#000000" fill-rule="nonzero" fill-opacity="1"></path><path clip-path="url(#clip090)" d="M2367.91 1454.1 Q2364.3 1454.1 2362.47 1457.66 Q2360.66 1461.2 2360.66 1468.33 Q2360.66 1475.44 2362.47 1479.01 Q2364.3 1482.55 2367.91 1482.55 Q2371.54 1482.55 2373.35 1479.01 Q2375.17 1475.44 2375.17 1468.33 Q2375.17 1461.2 2373.35 1457.66 Q2371.54 1454.1 2367.91 1454.1 M2367.91 1450.39 Q2373.72 1450.39 2376.77 1455 Q2379.85 1459.58 2379.85 1468.33 Q2379.85 1477.06 2376.77 1481.67 Q2373.72 1486.25 2367.91 1486.25 Q2362.1 1486.25 2359.02 1481.67 Q2355.96 1477.06 2355.96 1468.33 Q2355.96 1459.58 2359.02 1455 Q2362.1 1450.39 2367.91 1450.39 Z" fill="#000000" fill-rule="nonzero" fill-opacity="1"></path><path clip-path="url(#clip090)" d="M1238.88 1540.03 L1261.35 1540.03 L1261.35 1545.45 L1238.88 1545.45 L1238.88 1540.03 M1250.15 1524.88 Q1243.14 1524.88 1239.04 1530.1 Q1234.9 1535.32 1234.9 1544.33 Q1234.9 1553.31 1239.01 1558.53 Q1243.14 1563.75 1250.15 1563.75 Q1257.15 1563.75 1261.25 1558.53 Q1265.33 1553.31 1265.33 1544.33 Q1265.33 1535.32 1261.25 1530.1 Q1257.15 1524.88 1250.15 1524.88 M1250.15 1519.66 Q1260.14 1519.66 1266.12 1526.38 Q1272.11 1533.06 1272.11 1544.33 Q1272.11 1555.57 1266.12 1562.25 Q1260.14 1568.97 1250.15 1568.97 Q1240.12 1568.97 1234.14 1562.28 Q1228.12 1555.6 1228.12 1544.33 Q1228.12 1533.06 1234.14 1526.35 Q1240.12 1519.66 1250.15 1519.66 Z" fill="#000000" fill-rule="nonzero" fill-opacity="1"></path><path clip-path="url(#clip090)" d="M1302.09 1518.52 L1315.58 1518.52 L1315.58 1523.07 L1307.95 1523.07 L1307.95 1572.09 L1315.58 1572.09 L1315.58 1576.64 L1302.09 1576.64 L1302.09 1518.52 Z" fill="#000000" fill-rule="nonzero" fill-opacity="1"></path><path clip-path="url(#clip090)" d="M1338.21 1523.77 Q1335.67 1523.77 1333.92 1525.55 Q1332.17 1527.3 1332.17 1529.85 Q1332.17 1532.36 1333.92 1534.11 Q1335.67 1535.83 1338.21 1535.83 Q1340.76 1535.83 1342.51 1534.11 Q1344.26 1532.36 1344.26 1529.85 Q1344.26 1527.34 1342.48 1525.55 Q1340.73 1523.77 1338.21 1523.77 M1338.21 1519.66 Q1340.25 1519.66 1342.13 1520.46 Q1344.01 1521.22 1345.38 1522.69 Q1346.84 1524.12 1347.57 1525.93 Q1348.3 1527.75 1348.3 1529.85 Q1348.3 1534.05 1345.34 1536.98 Q1342.42 1539.88 1338.15 1539.88 Q1333.85 1539.88 1330.99 1537.01 Q1328.13 1534.15 1328.13 1529.85 Q1328.13 1525.58 1331.05 1522.62 Q1333.98 1519.66 1338.21 1519.66 Z" fill="#000000" fill-rule="nonzero" fill-opacity="1"></path><path clip-path="url(#clip090)" d="M1374.34 1518.52 L1374.34 1576.64 L1360.84 1576.64 L1360.84 1572.09 L1368.45 1572.09 L1368.45 1523.07 L1360.84 1523.07 L1360.84 1518.52 L1374.34 1518.52 Z" fill="#000000" fill-rule="nonzero" fill-opacity="1"></path><polyline clip-path="url(#clip092)" style="stroke:#000000; stroke-linecap:round; stroke-linejoin:round; stroke-width:2; stroke-opacity:0.1; fill:none" points="249.704,1423.18 2352.76,1423.18 "></polyline>
<polyline clip-path="url(#clip092)" style="stroke:#000000; stroke-linecap:round; stroke-linejoin:round; stroke-width:2; stroke-opacity:0.1; fill:none" points="249.704,1079.2 2352.76,1079.2 "></polyline>
<polyline clip-path="url(#clip092)" style="stroke:#000000; stroke-linecap:round; stroke-linejoin:round; stroke-width:2; stroke-opacity:0.1; fill:none" points="249.704,735.212 2352.76,735.212 "></polyline>
<polyline clip-path="url(#clip092)" style="stroke:#000000; stroke-linecap:round; stroke-linejoin:round; stroke-width:2; stroke-opacity:0.1; fill:none" points="249.704,391.228 2352.76,391.228 "></polyline>
<polyline clip-path="url(#clip090)" style="stroke:#000000; stroke-linecap:round; stroke-linejoin:round; stroke-width:4; stroke-opacity:1; fill:none" points="249.704,1423.18 249.704,47.2441 "></polyline>
<polyline clip-path="url(#clip090)" style="stroke:#000000; stroke-linecap:round; stroke-linejoin:round; stroke-width:4; stroke-opacity:1; fill:none" points="249.704,1423.18 268.602,1423.18 "></polyline>
<polyline clip-path="url(#clip090)" style="stroke:#000000; stroke-linecap:round; stroke-linejoin:round; stroke-width:4; stroke-opacity:1; fill:none" points="249.704,1079.2 268.602,1079.2 "></polyline>
<polyline clip-path="url(#clip090)" style="stroke:#000000; stroke-linecap:round; stroke-linejoin:round; stroke-width:4; stroke-opacity:1; fill:none" points="249.704,735.212 268.602,735.212 "></polyline>
<polyline clip-path="url(#clip090)" style="stroke:#000000; stroke-linecap:round; stroke-linejoin:round; stroke-width:4; stroke-opacity:1; fill:none" points="249.704,391.228 268.602,391.228 "></polyline>
<path clip-path="url(#clip090)" d="M126.205 1408.98 Q122.593 1408.98 120.765 1412.54 Q118.959 1416.08 118.959 1423.21 Q118.959 1430.32 120.765 1433.89 Q122.593 1437.43 126.205 1437.43 Q129.839 1437.43 131.644 1433.89 Q133.473 1430.32 133.473 1423.21 Q133.473 1416.08 131.644 1412.54 Q129.839 1408.98 126.205 1408.98 M126.205 1405.27 Q132.015 1405.27 135.07 1409.88 Q138.149 1414.46 138.149 1423.21 Q138.149 1431.94 135.07 1436.55 Q132.015 1441.13 126.205 1441.13 Q120.394 1441.13 117.316 1436.55 Q114.26 1431.94 114.26 1423.21 Q114.26 1414.46 117.316 1409.88 Q120.394 1405.27 126.205 1405.27 Z" fill="#000000" fill-rule="nonzero" fill-opacity="1"></path><path clip-path="url(#clip090)" d="M146.366 1434.58 L151.251 1434.58 L151.251 1440.46 L146.366 1440.46 L146.366 1434.58 Z" fill="#000000" fill-rule="nonzero" fill-opacity="1"></path><path clip-path="url(#clip090)" d="M161.575 1439.74 L161.575 1435.48 Q163.334 1436.32 165.14 1436.76 Q166.945 1437.2 168.681 1437.2 Q173.311 1437.2 175.741 1434.09 Q178.195 1430.97 178.542 1424.63 Q177.2 1426.62 175.139 1427.68 Q173.079 1428.75 170.579 1428.75 Q165.394 1428.75 162.362 1425.62 Q159.353 1422.47 159.353 1417.03 Q159.353 1411.71 162.501 1408.49 Q165.649 1405.27 170.88 1405.27 Q176.876 1405.27 180.024 1409.88 Q183.195 1414.46 183.195 1423.21 Q183.195 1431.39 179.306 1436.27 Q175.44 1441.13 168.889 1441.13 Q167.13 1441.13 165.325 1440.78 Q163.519 1440.44 161.575 1439.74 M170.88 1425.09 Q174.028 1425.09 175.857 1422.94 Q177.709 1420.78 177.709 1417.03 Q177.709 1413.31 175.857 1411.15 Q174.028 1408.98 170.88 1408.98 Q167.732 1408.98 165.88 1411.15 Q164.052 1413.31 164.052 1417.03 Q164.052 1420.78 165.88 1422.94 Q167.732 1425.09 170.88 1425.09 Z" fill="#000000" fill-rule="nonzero" fill-opacity="1"></path><path clip-path="url(#clip090)" d="M202.176 1421.32 Q199.028 1421.32 197.176 1423.47 Q195.348 1425.62 195.348 1429.37 Q195.348 1433.1 197.176 1435.27 Q199.028 1437.43 202.176 1437.43 Q205.324 1437.43 207.153 1435.27 Q209.005 1433.1 209.005 1429.37 Q209.005 1425.62 207.153 1423.47 Q205.324 1421.32 202.176 1421.32 M211.459 1406.66 L211.459 1410.92 Q209.699 1410.09 207.894 1409.65 Q206.112 1409.21 204.352 1409.21 Q199.723 1409.21 197.269 1412.33 Q194.838 1415.46 194.491 1421.78 Q195.857 1419.77 197.917 1418.7 Q199.977 1417.61 202.454 1417.61 Q207.662 1417.61 210.672 1420.78 Q213.704 1423.93 213.704 1429.37 Q213.704 1434.7 210.556 1437.91 Q207.408 1441.13 202.176 1441.13 Q196.181 1441.13 193.01 1436.55 Q189.838 1431.94 189.838 1423.21 Q189.838 1415.02 193.727 1410.16 Q197.616 1405.27 204.167 1405.27 Q205.926 1405.27 207.709 1405.62 Q209.514 1405.97 211.459 1406.66 Z" fill="#000000" fill-rule="nonzero" fill-opacity="1"></path><path clip-path="url(#clip090)" d="M127.269 1064.99 Q123.658 1064.99 121.83 1068.56 Q120.024 1072.1 120.024 1079.23 Q120.024 1086.34 121.83 1089.9 Q123.658 1093.44 127.269 1093.44 Q130.904 1093.44 132.709 1089.9 Q134.538 1086.34 134.538 1079.23 Q134.538 1072.1 132.709 1068.56 Q130.904 1064.99 127.269 1064.99 M127.269 1061.29 Q133.08 1061.29 136.135 1065.9 Q139.214 1070.48 139.214 1079.23 Q139.214 1087.96 136.135 1092.56 Q133.08 1097.15 127.269 1097.15 Q121.459 1097.15 118.381 1092.56 Q115.325 1087.96 115.325 1079.23 Q115.325 1070.48 118.381 1065.9 Q121.459 1061.29 127.269 1061.29 Z" fill="#000000" fill-rule="nonzero" fill-opacity="1"></path><path clip-path="url(#clip090)" d="M147.431 1090.6 L152.316 1090.6 L152.316 1096.48 L147.431 1096.48 L147.431 1090.6 Z" fill="#000000" fill-rule="nonzero" fill-opacity="1"></path><path clip-path="url(#clip090)" d="M162.64 1095.76 L162.64 1091.5 Q164.399 1092.33 166.204 1092.77 Q168.01 1093.21 169.746 1093.21 Q174.376 1093.21 176.806 1090.11 Q179.26 1086.99 179.607 1080.64 Q178.264 1082.63 176.204 1083.7 Q174.144 1084.76 171.644 1084.76 Q166.459 1084.76 163.427 1081.64 Q160.417 1078.49 160.417 1073.05 Q160.417 1067.73 163.565 1064.51 Q166.714 1061.29 171.945 1061.29 Q177.94 1061.29 181.089 1065.9 Q184.26 1070.48 184.26 1079.23 Q184.26 1087.4 180.371 1092.29 Q176.505 1097.15 169.954 1097.15 Q168.195 1097.15 166.39 1096.8 Q164.584 1096.45 162.64 1095.76 M171.945 1081.11 Q175.093 1081.11 176.922 1078.95 Q178.774 1076.8 178.774 1073.05 Q178.774 1069.32 176.922 1067.17 Q175.093 1064.99 171.945 1064.99 Q168.797 1064.99 166.945 1067.17 Q165.116 1069.32 165.116 1073.05 Q165.116 1076.8 166.945 1078.95 Q168.797 1081.11 171.945 1081.11 Z" fill="#000000" fill-rule="nonzero" fill-opacity="1"></path><path clip-path="url(#clip090)" d="M191.482 1061.92 L213.704 1061.92 L213.704 1063.91 L201.158 1096.48 L196.274 1096.48 L208.079 1065.85 L191.482 1065.85 L191.482 1061.92 Z" fill="#000000" fill-rule="nonzero" fill-opacity="1"></path><path clip-path="url(#clip090)" d="M126.459 721.011 Q122.848 721.011 121.019 724.575 Q119.214 728.117 119.214 735.247 Q119.214 742.353 121.019 745.918 Q122.848 749.46 126.459 749.46 Q130.093 749.46 131.899 745.918 Q133.728 742.353 133.728 735.247 Q133.728 728.117 131.899 724.575 Q130.093 721.011 126.459 721.011 M126.459 717.307 Q132.269 717.307 135.325 721.913 Q138.404 726.497 138.404 735.247 Q138.404 743.973 135.325 748.58 Q132.269 753.163 126.459 753.163 Q120.649 753.163 117.57 748.58 Q114.515 743.973 114.515 735.247 Q114.515 726.497 117.57 721.913 Q120.649 717.307 126.459 717.307 Z" fill="#000000" fill-rule="nonzero" fill-opacity="1"></path><path clip-path="url(#clip090)" d="M146.621 746.612 L151.505 746.612 L151.505 752.492 L146.621 752.492 L146.621 746.612 Z" fill="#000000" fill-rule="nonzero" fill-opacity="1"></path><path clip-path="url(#clip090)" d="M161.829 751.774 L161.829 747.515 Q163.589 748.348 165.394 748.788 Q167.2 749.228 168.936 749.228 Q173.565 749.228 175.996 746.126 Q178.45 743.001 178.797 736.659 Q177.454 738.649 175.394 739.714 Q173.334 740.779 170.834 740.779 Q165.649 740.779 162.616 737.654 Q159.607 734.506 159.607 729.066 Q159.607 723.742 162.755 720.525 Q165.903 717.307 171.135 717.307 Q177.13 717.307 180.278 721.913 Q183.45 726.497 183.45 735.247 Q183.45 743.418 179.561 748.302 Q175.695 753.163 169.144 753.163 Q167.385 753.163 165.579 752.816 Q163.774 752.469 161.829 751.774 M171.135 737.122 Q174.283 737.122 176.112 734.969 Q177.964 732.816 177.964 729.066 Q177.964 725.339 176.112 723.187 Q174.283 721.011 171.135 721.011 Q167.987 721.011 166.135 723.187 Q164.306 725.339 164.306 729.066 Q164.306 732.816 166.135 734.969 Q167.987 737.122 171.135 737.122 Z" fill="#000000" fill-rule="nonzero" fill-opacity="1"></path><path clip-path="url(#clip090)" d="M201.852 736.08 Q198.519 736.08 196.598 737.862 Q194.7 739.645 194.7 742.77 Q194.7 745.895 196.598 747.677 Q198.519 749.46 201.852 749.46 Q205.186 749.46 207.107 747.677 Q209.028 745.872 209.028 742.77 Q209.028 739.645 207.107 737.862 Q205.209 736.08 201.852 736.08 M197.176 734.089 Q194.167 733.349 192.477 731.288 Q190.811 729.228 190.811 726.265 Q190.811 722.122 193.75 719.714 Q196.713 717.307 201.852 717.307 Q207.014 717.307 209.954 719.714 Q212.894 722.122 212.894 726.265 Q212.894 729.228 211.204 731.288 Q209.537 733.349 206.551 734.089 Q209.931 734.876 211.806 737.168 Q213.704 739.46 213.704 742.77 Q213.704 747.793 210.625 750.478 Q207.57 753.163 201.852 753.163 Q196.135 753.163 193.056 750.478 Q190 747.793 190 742.77 Q190 739.46 191.899 737.168 Q193.797 734.876 197.176 734.089 M195.463 726.705 Q195.463 729.39 197.13 730.895 Q198.82 732.399 201.852 732.399 Q204.862 732.399 206.551 730.895 Q208.264 729.39 208.264 726.705 Q208.264 724.02 206.551 722.515 Q204.862 721.011 201.852 721.011 Q198.82 721.011 197.13 722.515 Q195.463 724.02 195.463 726.705 Z" fill="#000000" fill-rule="nonzero" fill-opacity="1"></path><path clip-path="url(#clip090)" d="M126.552 377.027 Q122.941 377.027 121.112 380.592 Q119.306 384.133 119.306 391.263 Q119.306 398.369 121.112 401.934 Q122.941 405.476 126.552 405.476 Q130.186 405.476 131.992 401.934 Q133.82 398.369 133.82 391.263 Q133.82 384.133 131.992 380.592 Q130.186 377.027 126.552 377.027 M126.552 373.323 Q132.362 373.323 135.417 377.929 Q138.496 382.513 138.496 391.263 Q138.496 399.99 135.417 404.596 Q132.362 409.179 126.552 409.179 Q120.742 409.179 117.663 404.596 Q114.607 399.99 114.607 391.263 Q114.607 382.513 117.663 377.929 Q120.742 373.323 126.552 373.323 Z" fill="#000000" fill-rule="nonzero" fill-opacity="1"></path><path clip-path="url(#clip090)" d="M146.714 402.628 L151.598 402.628 L151.598 408.508 L146.714 408.508 L146.714 402.628 Z" fill="#000000" fill-rule="nonzero" fill-opacity="1"></path><path clip-path="url(#clip090)" d="M161.922 407.79 L161.922 403.531 Q163.681 404.365 165.487 404.804 Q167.292 405.244 169.028 405.244 Q173.658 405.244 176.089 402.142 Q178.542 399.017 178.889 392.675 Q177.547 394.666 175.487 395.73 Q173.427 396.795 170.927 396.795 Q165.741 396.795 162.709 393.67 Q159.7 390.522 159.7 385.082 Q159.7 379.758 162.848 376.541 Q165.996 373.323 171.227 373.323 Q177.223 373.323 180.371 377.929 Q183.542 382.513 183.542 391.263 Q183.542 399.434 179.653 404.318 Q175.788 409.179 169.237 409.179 Q167.477 409.179 165.672 408.832 Q163.866 408.485 161.922 407.79 M171.227 393.138 Q174.376 393.138 176.204 390.985 Q178.056 388.832 178.056 385.082 Q178.056 381.355 176.204 379.203 Q174.376 377.027 171.227 377.027 Q168.079 377.027 166.227 379.203 Q164.399 381.355 164.399 385.082 Q164.399 388.832 166.227 390.985 Q168.079 393.138 171.227 393.138 Z" fill="#000000" fill-rule="nonzero" fill-opacity="1"></path><path clip-path="url(#clip090)" d="M192.084 407.79 L192.084 403.531 Q193.843 404.365 195.649 404.804 Q197.454 405.244 199.19 405.244 Q203.82 405.244 206.25 402.142 Q208.704 399.017 209.051 392.675 Q207.709 394.666 205.649 395.73 Q203.588 396.795 201.088 396.795 Q195.903 396.795 192.871 393.67 Q189.862 390.522 189.862 385.082 Q189.862 379.758 193.01 376.541 Q196.158 373.323 201.389 373.323 Q207.385 373.323 210.533 377.929 Q213.704 382.513 213.704 391.263 Q213.704 399.434 209.815 404.318 Q205.949 409.179 199.399 409.179 Q197.639 409.179 195.834 408.832 Q194.028 408.485 192.084 407.79 M201.389 393.138 Q204.537 393.138 206.366 390.985 Q208.218 388.832 208.218 385.082 Q208.218 381.355 206.366 379.203 Q204.537 377.027 201.389 377.027 Q198.241 377.027 196.389 379.203 Q194.561 381.355 194.561 385.082 Q194.561 388.832 196.389 390.985 Q198.241 393.138 201.389 393.138 Z" fill="#000000" fill-rule="nonzero" fill-opacity="1"></path><path clip-path="url(#clip090)" d="M16.4842 1191.86 L16.4842 1164.55 L21.895 1164.55 L21.895 1185.43 L35.8996 1185.43 L35.8996 1166.58 L41.3104 1166.58 L41.3104 1185.43 L64.0042 1185.43 L64.0042 1191.86 L16.4842 1191.86 Z" fill="#000000" fill-rule="nonzero" fill-opacity="1"></path><path clip-path="url(#clip090)" d="M33.8307 1138.7 Q33.2578 1139.69 33.0032 1140.87 Q32.7167 1142.01 32.7167 1143.41 Q32.7167 1148.38 35.9632 1151.05 Q39.1779 1153.69 45.2253 1153.69 L64.0042 1153.69 L64.0042 1159.58 L28.3562 1159.58 L28.3562 1153.69 L33.8944 1153.69 Q30.6479 1151.85 29.0883 1148.89 Q27.4968 1145.93 27.4968 1141.69 Q27.4968 1141.09 27.5923 1140.36 Q27.656 1139.63 27.8151 1138.73 L33.8307 1138.7 Z" fill="#000000" fill-rule="nonzero" fill-opacity="1"></path><path clip-path="url(#clip090)" d="M44.7161 1103.5 L47.5806 1103.5 L47.5806 1130.43 Q53.6281 1130.04 56.8109 1126.8 Q59.9619 1123.52 59.9619 1117.7 Q59.9619 1114.32 59.1344 1111.17 Q58.3069 1107.99 56.6518 1104.87 L62.1899 1104.87 Q63.5267 1108.02 64.227 1111.33 Q64.9272 1114.64 64.9272 1118.05 Q64.9272 1126.58 59.9619 1131.57 Q54.9967 1136.54 46.5303 1136.54 Q37.7774 1136.54 32.6531 1131.83 Q27.4968 1127.08 27.4968 1119.06 Q27.4968 1111.87 32.1438 1107.7 Q36.7589 1103.5 44.7161 1103.5 M42.9973 1109.36 Q38.1912 1109.42 35.3266 1112.06 Q32.4621 1114.67 32.4621 1119 Q32.4621 1123.9 35.2312 1126.86 Q38.0002 1129.79 43.0292 1130.24 L42.9973 1109.36 Z" fill="#000000" fill-rule="nonzero" fill-opacity="1"></path><path clip-path="url(#clip090)" d="M29.4065 1071.16 L34.9447 1071.16 Q33.6716 1073.64 33.035 1076.32 Q32.3984 1078.99 32.3984 1081.86 Q32.3984 1086.22 33.7352 1088.41 Q35.072 1090.58 37.7456 1090.58 Q39.7826 1090.58 40.9603 1089.02 Q42.1061 1087.46 43.1565 1082.75 L43.6021 1080.74 Q44.9389 1074.5 47.3897 1071.89 Q49.8086 1069.25 54.1691 1069.25 Q59.1344 1069.25 62.0308 1073.2 Q64.9272 1077.11 64.9272 1083.99 Q64.9272 1086.85 64.3543 1089.97 Q63.8132 1093.06 62.6992 1096.5 L56.6518 1096.5 Q58.3387 1093.25 59.198 1090.1 Q60.0256 1086.95 60.0256 1083.86 Q60.0256 1079.72 58.6251 1077.5 Q57.1929 1075.27 54.6147 1075.27 Q52.2276 1075.27 50.9545 1076.89 Q49.6813 1078.48 48.5037 1083.93 L48.0262 1085.96 Q46.8804 1091.41 44.5251 1093.82 Q42.138 1096.24 38.0002 1096.24 Q32.9713 1096.24 30.2341 1092.68 Q27.4968 1089.11 27.4968 1082.56 Q27.4968 1079.31 27.9743 1076.45 Q28.4517 1073.58 29.4065 1071.16 Z" fill="#000000" fill-rule="nonzero" fill-opacity="1"></path><path clip-path="url(#clip090)" d="M42.4881 1030.29 L64.0042 1030.29 L64.0042 1036.15 L42.679 1036.15 Q37.6183 1036.15 35.1038 1038.12 Q32.5894 1040.1 32.5894 1044.04 Q32.5894 1048.79 35.6131 1051.52 Q38.6368 1054.26 43.8567 1054.26 L64.0042 1054.26 L64.0042 1060.15 L28.3562 1060.15 L28.3562 1054.26 L33.8944 1054.26 Q30.6797 1052.16 29.0883 1049.33 Q27.4968 1046.46 27.4968 1042.74 Q27.4968 1036.6 31.3163 1033.45 Q35.1038 1030.29 42.4881 1030.29 Z" fill="#000000" fill-rule="nonzero" fill-opacity="1"></path><path clip-path="url(#clip090)" d="M44.7161 988.121 L47.5806 988.121 L47.5806 1015.05 Q53.6281 1014.67 56.8109 1011.42 Q59.9619 1008.14 59.9619 1002.32 Q59.9619 998.943 59.1344 995.792 Q58.3069 992.609 56.6518 989.49 L62.1899 989.49 Q63.5267 992.641 64.227 995.951 Q64.9272 999.261 64.9272 1002.67 Q64.9272 1011.2 59.9619 1016.19 Q54.9967 1021.16 46.5303 1021.16 Q37.7774 1021.16 32.6531 1016.45 Q27.4968 1011.71 27.4968 1003.69 Q27.4968 996.492 32.1438 992.323 Q36.7589 988.121 44.7161 988.121 M42.9973 993.978 Q38.1912 994.042 35.3266 996.683 Q32.4621 999.293 32.4621 1003.62 Q32.4621 1008.52 35.2312 1011.48 Q38.0002 1014.41 43.0292 1014.86 L42.9973 993.978 Z" fill="#000000" fill-rule="nonzero" fill-opacity="1"></path><path clip-path="url(#clip090)" d="M14.479 978.509 L14.479 972.653 L64.0042 972.653 L64.0042 978.509 L14.479 978.509 Z" fill="#000000" fill-rule="nonzero" fill-opacity="1"></path><path clip-path="url(#clip090)" d="M33.8307 919.022 Q33.2578 920.008 33.0032 921.186 Q32.7167 922.332 32.7167 923.732 Q32.7167 928.698 35.9632 931.371 Q39.1779 934.013 45.2253 934.013 L64.0042 934.013 L64.0042 939.901 L28.3562 939.901 L28.3562 934.013 L33.8944 934.013 Q30.6479 932.167 29.0883 929.207 Q27.4968 926.247 27.4968 922.014 Q27.4968 921.409 27.5923 920.677 Q27.656 919.945 27.8151 919.054 L33.8307 919.022 Z" fill="#000000" fill-rule="nonzero" fill-opacity="1"></path><path clip-path="url(#clip090)" d="M44.7161 883.819 L47.5806 883.819 L47.5806 910.746 Q53.6281 910.364 56.8109 907.118 Q59.9619 903.84 59.9619 898.015 Q59.9619 894.641 59.1344 891.49 Q58.3069 888.307 56.6518 885.188 L62.1899 885.188 Q63.5267 888.339 64.227 891.649 Q64.9272 894.959 64.9272 898.365 Q64.9272 906.895 59.9619 911.892 Q54.9967 916.857 46.5303 916.857 Q37.7774 916.857 32.6531 912.147 Q27.4968 907.404 27.4968 899.384 Q27.4968 892.19 32.1438 888.021 Q36.7589 883.819 44.7161 883.819 M42.9973 889.676 Q38.1912 889.739 35.3266 892.381 Q32.4621 894.991 32.4621 899.32 Q32.4621 904.221 35.2312 907.182 Q38.0002 910.11 43.0292 910.555 L42.9973 889.676 Z" fill="#000000" fill-rule="nonzero" fill-opacity="1"></path><path clip-path="url(#clip090)" d="M14.479 856.16 L19.3487 856.16 L19.3487 861.762 Q19.3487 864.913 20.6219 866.155 Q21.895 867.364 25.2052 867.364 L28.3562 867.364 L28.3562 857.72 L32.9077 857.72 L32.9077 867.364 L64.0042 867.364 L64.0042 873.252 L32.9077 873.252 L32.9077 878.854 L28.3562 878.854 L28.3562 873.252 L25.8736 873.252 Q19.9216 873.252 17.2162 870.483 Q14.479 867.714 14.479 861.699 L14.479 856.16 Z" fill="#000000" fill-rule="nonzero" fill-opacity="1"></path><path clip-path="url(#clip090)" d="M14.479 851.259 L14.479 845.402 L64.0042 845.402 L64.0042 851.259 L14.479 851.259 Z" fill="#000000" fill-rule="nonzero" fill-opacity="1"></path><path clip-path="url(#clip090)" d="M44.7161 802.657 L47.5806 802.657 L47.5806 829.584 Q53.6281 829.202 56.8109 825.955 Q59.9619 822.677 59.9619 816.852 Q59.9619 813.478 59.1344 810.327 Q58.3069 807.144 56.6518 804.025 L62.1899 804.025 Q63.5267 807.176 64.227 810.486 Q64.9272 813.797 64.9272 817.202 Q64.9272 825.732 59.9619 830.729 Q54.9967 835.695 46.5303 835.695 Q37.7774 835.695 32.6531 830.984 Q27.4968 826.242 27.4968 818.221 Q27.4968 811.028 32.1438 806.858 Q36.7589 802.657 44.7161 802.657 M42.9973 808.513 Q38.1912 808.577 35.3266 811.219 Q32.4621 813.828 32.4621 818.157 Q32.4621 823.059 35.2312 826.019 Q38.0002 828.947 43.0292 829.393 L42.9973 808.513 Z" fill="#000000" fill-rule="nonzero" fill-opacity="1"></path><path clip-path="url(#clip090)" d="M29.7248 767.391 L35.1993 767.391 Q33.8307 769.873 33.1623 772.388 Q32.4621 774.87 32.4621 777.417 Q32.4621 783.114 36.0905 786.265 Q39.6872 789.416 46.212 789.416 Q52.7369 789.416 56.3653 786.265 Q59.9619 783.114 59.9619 777.417 Q59.9619 774.87 59.2935 772.388 Q58.5933 769.873 57.2247 767.391 L62.6355 767.391 Q63.7814 769.841 64.3543 772.483 Q64.9272 775.093 64.9272 778.053 Q64.9272 786.106 59.8664 790.848 Q54.8057 795.591 46.212 795.591 Q37.491 795.591 32.4939 790.816 Q27.4968 786.01 27.4968 777.671 Q27.4968 774.966 28.0697 772.388 Q28.6108 769.81 29.7248 767.391 Z" fill="#000000" fill-rule="nonzero" fill-opacity="1"></path><path clip-path="url(#clip090)" d="M18.2347 751.413 L28.3562 751.413 L28.3562 739.35 L32.9077 739.35 L32.9077 751.413 L52.2594 751.413 Q56.6199 751.413 57.8613 750.235 Q59.1026 749.026 59.1026 745.365 L59.1026 739.35 L64.0042 739.35 L64.0042 745.365 Q64.0042 752.145 61.4897 754.723 Q58.9434 757.301 52.2594 757.301 L32.9077 757.301 L32.9077 761.598 L28.3562 761.598 L28.3562 757.301 L18.2347 757.301 L18.2347 751.413 Z" fill="#000000" fill-rule="nonzero" fill-opacity="1"></path><path clip-path="url(#clip090)" d="M28.3562 731.647 L28.3562 725.791 L64.0042 725.791 L64.0042 731.647 L28.3562 731.647 M14.479 731.647 L14.479 725.791 L21.895 725.791 L21.895 731.647 L14.479 731.647 Z" fill="#000000" fill-rule="nonzero" fill-opacity="1"></path><path clip-path="url(#clip090)" d="M32.4621 699.723 Q32.4621 704.434 36.1542 707.171 Q39.8145 709.908 46.212 709.908 Q52.6095 709.908 56.3017 707.203 Q59.9619 704.466 59.9619 699.723 Q59.9619 695.044 56.2698 692.307 Q52.5777 689.57 46.212 689.57 Q39.8781 689.57 36.186 692.307 Q32.4621 695.044 32.4621 699.723 M27.4968 699.723 Q27.4968 692.084 32.4621 687.724 Q37.4273 683.363 46.212 683.363 Q54.9649 683.363 59.9619 687.724 Q64.9272 692.084 64.9272 699.723 Q64.9272 707.394 59.9619 711.754 Q54.9649 716.083 46.212 716.083 Q37.4273 716.083 32.4621 711.754 Q27.4968 707.394 27.4968 699.723 Z" fill="#000000" fill-rule="nonzero" fill-opacity="1"></path><path clip-path="url(#clip090)" d="M42.4881 644.023 L64.0042 644.023 L64.0042 649.88 L42.679 649.88 Q37.6183 649.88 35.1038 651.853 Q32.5894 653.826 32.5894 657.773 Q32.5894 662.516 35.6131 665.253 Q38.6368 667.99 43.8567 667.99 L64.0042 667.99 L64.0042 673.878 L28.3562 673.878 L28.3562 667.99 L33.8944 667.99 Q30.6797 665.889 29.0883 663.057 Q27.4968 660.192 27.4968 656.468 Q27.4968 650.325 31.3163 647.174 Q35.1038 644.023 42.4881 644.023 Z" fill="#000000" fill-rule="nonzero" fill-opacity="1"></path><path clip-path="url(#clip090)" d="M29.7248 585.968 L35.1993 585.968 Q33.8307 588.451 33.1623 590.965 Q32.4621 593.448 32.4621 595.994 Q32.4621 601.691 36.0905 604.842 Q39.6872 607.993 46.212 607.993 Q52.7369 607.993 56.3653 604.842 Q59.9619 601.691 59.9619 595.994 Q59.9619 593.448 59.2935 590.965 Q58.5933 588.451 57.2247 585.968 L62.6355 585.968 Q63.7814 588.419 64.3543 591.061 Q64.9272 593.67 64.9272 596.631 Q64.9272 604.683 59.8664 609.426 Q54.8057 614.168 46.212 614.168 Q37.491 614.168 32.4939 609.394 Q27.4968 604.588 27.4968 596.249 Q27.4968 593.543 28.0697 590.965 Q28.6108 588.387 29.7248 585.968 Z" fill="#000000" fill-rule="nonzero" fill-opacity="1"></path><path clip-path="url(#clip090)" d="M32.4621 561.969 Q32.4621 566.68 36.1542 569.417 Q39.8145 572.154 46.212 572.154 Q52.6095 572.154 56.3017 569.449 Q59.9619 566.712 59.9619 561.969 Q59.9619 557.29 56.2698 554.553 Q52.5777 551.816 46.212 551.816 Q39.8781 551.816 36.186 554.553 Q32.4621 557.29 32.4621 561.969 M27.4968 561.969 Q27.4968 554.33 32.4621 549.97 Q37.4273 545.609 46.212 545.609 Q54.9649 545.609 59.9619 549.97 Q64.9272 554.33 64.9272 561.969 Q64.9272 569.64 59.9619 574 Q54.9649 578.329 46.212 578.329 Q37.4273 578.329 32.4621 574 Q27.4968 569.64 27.4968 561.969 Z" fill="#000000" fill-rule="nonzero" fill-opacity="1"></path><path clip-path="url(#clip090)" d="M44.7161 505.41 L47.5806 505.41 L47.5806 532.337 Q53.6281 531.955 56.8109 528.708 Q59.9619 525.43 59.9619 519.605 Q59.9619 516.232 59.1344 513.081 Q58.3069 509.898 56.6518 506.779 L62.1899 506.779 Q63.5267 509.93 64.227 513.24 Q64.9272 516.55 64.9272 519.956 Q64.9272 528.486 59.9619 533.483 Q54.9967 538.448 46.5303 538.448 Q37.7774 538.448 32.6531 533.737 Q27.4968 528.995 27.4968 520.974 Q27.4968 513.781 32.1438 509.611 Q36.7589 505.41 44.7161 505.41 M42.9973 511.266 Q38.1912 511.33 35.3266 513.972 Q32.4621 516.582 32.4621 520.91 Q32.4621 525.812 35.2312 528.772 Q38.0002 531.7 43.0292 532.146 L42.9973 511.266 Z" fill="#000000" fill-rule="nonzero" fill-opacity="1"></path><path clip-path="url(#clip090)" d="M14.479 477.751 L19.3487 477.751 L19.3487 483.353 Q19.3487 486.504 20.6219 487.745 Q21.895 488.955 25.2052 488.955 L28.3562 488.955 L28.3562 479.311 L32.9077 479.311 L32.9077 488.955 L64.0042 488.955 L64.0042 494.843 L32.9077 494.843 L32.9077 500.445 L28.3562 500.445 L28.3562 494.843 L25.8736 494.843 Q19.9216 494.843 17.2162 492.074 Q14.479 489.305 14.479 483.289 L14.479 477.751 Z" fill="#000000" fill-rule="nonzero" fill-opacity="1"></path><path clip-path="url(#clip090)" d="M14.479 454.803 L19.3487 454.803 L19.3487 460.404 Q19.3487 463.555 20.6219 464.797 Q21.895 466.006 25.2052 466.006 L28.3562 466.006 L28.3562 456.362 L32.9077 456.362 L32.9077 466.006 L64.0042 466.006 L64.0042 471.895 L32.9077 471.895 L32.9077 477.496 L28.3562 477.496 L28.3562 471.895 L25.8736 471.895 Q19.9216 471.895 17.2162 469.125 Q14.479 466.356 14.479 460.341 L14.479 454.803 Z" fill="#000000" fill-rule="nonzero" fill-opacity="1"></path><path clip-path="url(#clip090)" d="M28.3562 449.901 L28.3562 444.045 L64.0042 444.045 L64.0042 449.901 L28.3562 449.901 M14.479 449.901 L14.479 444.045 L21.895 444.045 L21.895 449.901 L14.479 449.901 Z" fill="#000000" fill-rule="nonzero" fill-opacity="1"></path><path clip-path="url(#clip090)" d="M29.7248 406.137 L35.1993 406.137 Q33.8307 408.619 33.1623 411.134 Q32.4621 413.616 32.4621 416.163 Q32.4621 421.86 36.0905 425.011 Q39.6872 428.162 46.212 428.162 Q52.7369 428.162 56.3653 425.011 Q59.9619 421.86 59.9619 416.163 Q59.9619 413.616 59.2935 411.134 Q58.5933 408.619 57.2247 406.137 L62.6355 406.137 Q63.7814 408.588 64.3543 411.229 Q64.9272 413.839 64.9272 416.799 Q64.9272 424.852 59.8664 429.594 Q54.8057 434.337 46.212 434.337 Q37.491 434.337 32.4939 429.563 Q27.4968 424.756 27.4968 416.417 Q27.4968 413.712 28.0697 411.134 Q28.6108 408.556 29.7248 406.137 Z" fill="#000000" fill-rule="nonzero" fill-opacity="1"></path><path clip-path="url(#clip090)" d="M28.3562 395.952 L28.3562 390.095 L64.0042 390.095 L64.0042 395.952 L28.3562 395.952 M14.479 395.952 L14.479 390.095 L21.895 390.095 L21.895 395.952 L14.479 395.952 Z" fill="#000000" fill-rule="nonzero" fill-opacity="1"></path><path clip-path="url(#clip090)" d="M44.7161 347.349 L47.5806 347.349 L47.5806 374.276 Q53.6281 373.894 56.8109 370.648 Q59.9619 367.37 59.9619 361.545 Q59.9619 358.171 59.1344 355.02 Q58.3069 351.837 56.6518 348.718 L62.1899 348.718 Q63.5267 351.869 64.227 355.179 Q64.9272 358.489 64.9272 361.895 Q64.9272 370.425 59.9619 375.422 Q54.9967 380.387 46.5303 380.387 Q37.7774 380.387 32.6531 375.677 Q27.4968 370.934 27.4968 362.914 Q27.4968 355.72 32.1438 351.551 Q36.7589 347.349 44.7161 347.349 M42.9973 353.206 Q38.1912 353.27 35.3266 355.911 Q32.4621 358.521 32.4621 362.85 Q32.4621 367.752 35.2312 370.712 Q38.0002 373.64 43.0292 374.085 L42.9973 353.206 Z" fill="#000000" fill-rule="nonzero" fill-opacity="1"></path><path clip-path="url(#clip090)" d="M42.4881 308.105 L64.0042 308.105 L64.0042 313.961 L42.679 313.961 Q37.6183 313.961 35.1038 315.935 Q32.5894 317.908 32.5894 321.855 Q32.5894 326.597 35.6131 329.335 Q38.6368 332.072 43.8567 332.072 L64.0042 332.072 L64.0042 337.96 L28.3562 337.96 L28.3562 332.072 L33.8944 332.072 Q30.6797 329.971 29.0883 327.138 Q27.4968 324.274 27.4968 320.55 Q27.4968 314.407 31.3163 311.256 Q35.1038 308.105 42.4881 308.105 Z" fill="#000000" fill-rule="nonzero" fill-opacity="1"></path><path clip-path="url(#clip090)" d="M18.2347 290.631 L28.3562 290.631 L28.3562 278.568 L32.9077 278.568 L32.9077 290.631 L52.2594 290.631 Q56.6199 290.631 57.8613 289.453 Q59.1026 288.244 59.1026 284.584 L59.1026 278.568 L64.0042 278.568 L64.0042 284.584 Q64.0042 291.363 61.4897 293.941 Q58.9434 296.519 52.2594 296.519 L32.9077 296.519 L32.9077 300.816 L28.3562 300.816 L28.3562 296.519 L18.2347 296.519 L18.2347 290.631 Z" fill="#000000" fill-rule="nonzero" fill-opacity="1"></path><polyline clip-path="url(#clip092)" style="stroke:#009af9; stroke-linecap:round; stroke-linejoin:round; stroke-width:4; stroke-opacity:1; fill:none" points="249.704,471.121 270.624,471.176 291.55,471.339 312.485,471.611 333.436,471.993 364.903,472.773 385.915,473.433 406.961,474.205 428.046,475.092 459.759,476.641 480.966,477.822 502.232,479.124 523.563,480.55 544.964,482.102 566.442,483.785 598.818,486.56 620.517,488.582 642.317,490.749 664.224,493.063 686.247,495.531 708.393,498.158 730.67,500.95 753.087,503.914 786.996,508.699 809.805,512.127 832.787,515.756 855.955,519.596 879.319,523.657 902.893,527.953 926.689,532.496 950.721,537.301 962.831,539.806 987.247,545.035 1011.94,550.568 1036.93,556.428 1062.23,562.636 1087.87,569.218 1113.87,576.204 1127.01,579.857 1153.6,587.508 1180.62,595.648 1194.3,599.915 1222.03,608.873 1250.27,618.439 1264.6,623.468 1293.71,634.058 1323.46,645.421 1338.59,651.417 1369.42,664.096 1385.13,670.805 1417.19,685.035 1433.57,692.588 1450.2,700.456 1484.26,717.221 1501.72,726.162 1519.5,735.507 1556.09,755.522 1574.94,766.253 1594.21,777.51 1613.93,789.33 1634.13,801.749 1654.86,814.81 1698.09,843.013 1720.72,858.233 1744.12,874.24 1768.39,891.05 1793.65,908.653 1820.02,926.99 1847.7,945.925 1876.9,965.178 1907.93,984.212 1941.2,1002.02 1977.31,1016.67 2017.17,1024.32 2062.32,1016.85 2115.77,974.829 2185.29,840.206 2352.76,47.2441 "></polyline>
<circle clip-path="url(#clip092)" cx="249.704" cy="471.121" r="7.2" fill="#009af9" fill-rule="evenodd" fill-opacity="1" stroke="#000000" stroke-opacity="1" stroke-width="3.2"></circle>
<circle clip-path="url(#clip092)" cx="270.624" cy="471.176" r="7.2" fill="#009af9" fill-rule="evenodd" fill-opacity="1" stroke="#000000" stroke-opacity="1" stroke-width="3.2"></circle>
<circle clip-path="url(#clip092)" cx="291.55" cy="471.339" r="7.2" fill="#009af9" fill-rule="evenodd" fill-opacity="1" stroke="#000000" stroke-opacity="1" stroke-width="3.2"></circle>
<circle clip-path="url(#clip092)" cx="312.485" cy="471.611" r="7.2" fill="#009af9" fill-rule="evenodd" fill-opacity="1" stroke="#000000" stroke-opacity="1" stroke-width="3.2"></circle>
<circle clip-path="url(#clip092)" cx="333.436" cy="471.993" r="7.2" fill="#009af9" fill-rule="evenodd" fill-opacity="1" stroke="#000000" stroke-opacity="1" stroke-width="3.2"></circle>
<circle clip-path="url(#clip092)" cx="364.903" cy="472.773" r="7.2" fill="#009af9" fill-rule="evenodd" fill-opacity="1" stroke="#000000" stroke-opacity="1" stroke-width="3.2"></circle>
<circle clip-path="url(#clip092)" cx="385.915" cy="473.433" r="7.2" fill="#009af9" fill-rule="evenodd" fill-opacity="1" stroke="#000000" stroke-opacity="1" stroke-width="3.2"></circle>
<circle clip-path="url(#clip092)" cx="406.961" cy="474.205" r="7.2" fill="#009af9" fill-rule="evenodd" fill-opacity="1" stroke="#000000" stroke-opacity="1" stroke-width="3.2"></circle>
<circle clip-path="url(#clip092)" cx="428.046" cy="475.092" r="7.2" fill="#009af9" fill-rule="evenodd" fill-opacity="1" stroke="#000000" stroke-opacity="1" stroke-width="3.2"></circle>
<circle clip-path="url(#clip092)" cx="459.759" cy="476.641" r="7.2" fill="#009af9" fill-rule="evenodd" fill-opacity="1" stroke="#000000" stroke-opacity="1" stroke-width="3.2"></circle>
<circle clip-path="url(#clip092)" cx="480.966" cy="477.822" r="7.2" fill="#009af9" fill-rule="evenodd" fill-opacity="1" stroke="#000000" stroke-opacity="1" stroke-width="3.2"></circle>
<circle clip-path="url(#clip092)" cx="502.232" cy="479.124" r="7.2" fill="#009af9" fill-rule="evenodd" fill-opacity="1" stroke="#000000" stroke-opacity="1" stroke-width="3.2"></circle>
<circle clip-path="url(#clip092)" cx="523.563" cy="480.55" r="7.2" fill="#009af9" fill-rule="evenodd" fill-opacity="1" stroke="#000000" stroke-opacity="1" stroke-width="3.2"></circle>
<circle clip-path="url(#clip092)" cx="544.964" cy="482.102" r="7.2" fill="#009af9" fill-rule="evenodd" fill-opacity="1" stroke="#000000" stroke-opacity="1" stroke-width="3.2"></circle>
<circle clip-path="url(#clip092)" cx="566.442" cy="483.785" r="7.2" fill="#009af9" fill-rule="evenodd" fill-opacity="1" stroke="#000000" stroke-opacity="1" stroke-width="3.2"></circle>
<circle clip-path="url(#clip092)" cx="598.818" cy="486.56" r="7.2" fill="#009af9" fill-rule="evenodd" fill-opacity="1" stroke="#000000" stroke-opacity="1" stroke-width="3.2"></circle>
<circle clip-path="url(#clip092)" cx="620.517" cy="488.582" r="7.2" fill="#009af9" fill-rule="evenodd" fill-opacity="1" stroke="#000000" stroke-opacity="1" stroke-width="3.2"></circle>
<circle clip-path="url(#clip092)" cx="642.317" cy="490.749" r="7.2" fill="#009af9" fill-rule="evenodd" fill-opacity="1" stroke="#000000" stroke-opacity="1" stroke-width="3.2"></circle>
<circle clip-path="url(#clip092)" cx="664.224" cy="493.063" r="7.2" fill="#009af9" fill-rule="evenodd" fill-opacity="1" stroke="#000000" stroke-opacity="1" stroke-width="3.2"></circle>
<circle clip-path="url(#clip092)" cx="686.247" cy="495.531" r="7.2" fill="#009af9" fill-rule="evenodd" fill-opacity="1" stroke="#000000" stroke-opacity="1" stroke-width="3.2"></circle>
<circle clip-path="url(#clip092)" cx="708.393" cy="498.158" r="7.2" fill="#009af9" fill-rule="evenodd" fill-opacity="1" stroke="#000000" stroke-opacity="1" stroke-width="3.2"></circle>
<circle clip-path="url(#clip092)" cx="730.67" cy="500.95" r="7.2" fill="#009af9" fill-rule="evenodd" fill-opacity="1" stroke="#000000" stroke-opacity="1" stroke-width="3.2"></circle>
<circle clip-path="url(#clip092)" cx="753.087" cy="503.914" r="7.2" fill="#009af9" fill-rule="evenodd" fill-opacity="1" stroke="#000000" stroke-opacity="1" stroke-width="3.2"></circle>
<circle clip-path="url(#clip092)" cx="786.996" cy="508.699" r="7.2" fill="#009af9" fill-rule="evenodd" fill-opacity="1" stroke="#000000" stroke-opacity="1" stroke-width="3.2"></circle>
<circle clip-path="url(#clip092)" cx="809.805" cy="512.127" r="7.2" fill="#009af9" fill-rule="evenodd" fill-opacity="1" stroke="#000000" stroke-opacity="1" stroke-width="3.2"></circle>
<circle clip-path="url(#clip092)" cx="832.787" cy="515.756" r="7.2" fill="#009af9" fill-rule="evenodd" fill-opacity="1" stroke="#000000" stroke-opacity="1" stroke-width="3.2"></circle>
<circle clip-path="url(#clip092)" cx="855.955" cy="519.596" r="7.2" fill="#009af9" fill-rule="evenodd" fill-opacity="1" stroke="#000000" stroke-opacity="1" stroke-width="3.2"></circle>
<circle clip-path="url(#clip092)" cx="879.319" cy="523.657" r="7.2" fill="#009af9" fill-rule="evenodd" fill-opacity="1" stroke="#000000" stroke-opacity="1" stroke-width="3.2"></circle>
<circle clip-path="url(#clip092)" cx="902.893" cy="527.953" r="7.2" fill="#009af9" fill-rule="evenodd" fill-opacity="1" stroke="#000000" stroke-opacity="1" stroke-width="3.2"></circle>
<circle clip-path="url(#clip092)" cx="926.689" cy="532.496" r="7.2" fill="#009af9" fill-rule="evenodd" fill-opacity="1" stroke="#000000" stroke-opacity="1" stroke-width="3.2"></circle>
<circle clip-path="url(#clip092)" cx="950.721" cy="537.301" r="7.2" fill="#009af9" fill-rule="evenodd" fill-opacity="1" stroke="#000000" stroke-opacity="1" stroke-width="3.2"></circle>
<circle clip-path="url(#clip092)" cx="962.831" cy="539.806" r="7.2" fill="#009af9" fill-rule="evenodd" fill-opacity="1" stroke="#000000" stroke-opacity="1" stroke-width="3.2"></circle>
<circle clip-path="url(#clip092)" cx="987.247" cy="545.035" r="7.2" fill="#009af9" fill-rule="evenodd" fill-opacity="1" stroke="#000000" stroke-opacity="1" stroke-width="3.2"></circle>
<circle clip-path="url(#clip092)" cx="1011.94" cy="550.568" r="7.2" fill="#009af9" fill-rule="evenodd" fill-opacity="1" stroke="#000000" stroke-opacity="1" stroke-width="3.2"></circle>
<circle clip-path="url(#clip092)" cx="1036.93" cy="556.428" r="7.2" fill="#009af9" fill-rule="evenodd" fill-opacity="1" stroke="#000000" stroke-opacity="1" stroke-width="3.2"></circle>
<circle clip-path="url(#clip092)" cx="1062.23" cy="562.636" r="7.2" fill="#009af9" fill-rule="evenodd" fill-opacity="1" stroke="#000000" stroke-opacity="1" stroke-width="3.2"></circle>
<circle clip-path="url(#clip092)" cx="1087.87" cy="569.218" r="7.2" fill="#009af9" fill-rule="evenodd" fill-opacity="1" stroke="#000000" stroke-opacity="1" stroke-width="3.2"></circle>
<circle clip-path="url(#clip092)" cx="1113.87" cy="576.204" r="7.2" fill="#009af9" fill-rule="evenodd" fill-opacity="1" stroke="#000000" stroke-opacity="1" stroke-width="3.2"></circle>
<circle clip-path="url(#clip092)" cx="1127.01" cy="579.857" r="7.2" fill="#009af9" fill-rule="evenodd" fill-opacity="1" stroke="#000000" stroke-opacity="1" stroke-width="3.2"></circle>
<circle clip-path="url(#clip092)" cx="1153.6" cy="587.508" r="7.2" fill="#009af9" fill-rule="evenodd" fill-opacity="1" stroke="#000000" stroke-opacity="1" stroke-width="3.2"></circle>
<circle clip-path="url(#clip092)" cx="1180.62" cy="595.648" r="7.2" fill="#009af9" fill-rule="evenodd" fill-opacity="1" stroke="#000000" stroke-opacity="1" stroke-width="3.2"></circle>
<circle clip-path="url(#clip092)" cx="1194.3" cy="599.915" r="7.2" fill="#009af9" fill-rule="evenodd" fill-opacity="1" stroke="#000000" stroke-opacity="1" stroke-width="3.2"></circle>
<circle clip-path="url(#clip092)" cx="1222.03" cy="608.873" r="7.2" fill="#009af9" fill-rule="evenodd" fill-opacity="1" stroke="#000000" stroke-opacity="1" stroke-width="3.2"></circle>
<circle clip-path="url(#clip092)" cx="1250.27" cy="618.439" r="7.2" fill="#009af9" fill-rule="evenodd" fill-opacity="1" stroke="#000000" stroke-opacity="1" stroke-width="3.2"></circle>
<circle clip-path="url(#clip092)" cx="1264.6" cy="623.468" r="7.2" fill="#009af9" fill-rule="evenodd" fill-opacity="1" stroke="#000000" stroke-opacity="1" stroke-width="3.2"></circle>
<circle clip-path="url(#clip092)" cx="1293.71" cy="634.058" r="7.2" fill="#009af9" fill-rule="evenodd" fill-opacity="1" stroke="#000000" stroke-opacity="1" stroke-width="3.2"></circle>
<circle clip-path="url(#clip092)" cx="1323.46" cy="645.421" r="7.2" fill="#009af9" fill-rule="evenodd" fill-opacity="1" stroke="#000000" stroke-opacity="1" stroke-width="3.2"></circle>
<circle clip-path="url(#clip092)" cx="1338.59" cy="651.417" r="7.2" fill="#009af9" fill-rule="evenodd" fill-opacity="1" stroke="#000000" stroke-opacity="1" stroke-width="3.2"></circle>
<circle clip-path="url(#clip092)" cx="1369.42" cy="664.096" r="7.2" fill="#009af9" fill-rule="evenodd" fill-opacity="1" stroke="#000000" stroke-opacity="1" stroke-width="3.2"></circle>
<circle clip-path="url(#clip092)" cx="1385.13" cy="670.805" r="7.2" fill="#009af9" fill-rule="evenodd" fill-opacity="1" stroke="#000000" stroke-opacity="1" stroke-width="3.2"></circle>
<circle clip-path="url(#clip092)" cx="1417.19" cy="685.035" r="7.2" fill="#009af9" fill-rule="evenodd" fill-opacity="1" stroke="#000000" stroke-opacity="1" stroke-width="3.2"></circle>
<circle clip-path="url(#clip092)" cx="1433.57" cy="692.588" r="7.2" fill="#009af9" fill-rule="evenodd" fill-opacity="1" stroke="#000000" stroke-opacity="1" stroke-width="3.2"></circle>
<circle clip-path="url(#clip092)" cx="1450.2" cy="700.456" r="7.2" fill="#009af9" fill-rule="evenodd" fill-opacity="1" stroke="#000000" stroke-opacity="1" stroke-width="3.2"></circle>
<circle clip-path="url(#clip092)" cx="1484.26" cy="717.221" r="7.2" fill="#009af9" fill-rule="evenodd" fill-opacity="1" stroke="#000000" stroke-opacity="1" stroke-width="3.2"></circle>
<circle clip-path="url(#clip092)" cx="1501.72" cy="726.162" r="7.2" fill="#009af9" fill-rule="evenodd" fill-opacity="1" stroke="#000000" stroke-opacity="1" stroke-width="3.2"></circle>
<circle clip-path="url(#clip092)" cx="1519.5" cy="735.507" r="7.2" fill="#009af9" fill-rule="evenodd" fill-opacity="1" stroke="#000000" stroke-opacity="1" stroke-width="3.2"></circle>
<circle clip-path="url(#clip092)" cx="1556.09" cy="755.522" r="7.2" fill="#009af9" fill-rule="evenodd" fill-opacity="1" stroke="#000000" stroke-opacity="1" stroke-width="3.2"></circle>
<circle clip-path="url(#clip092)" cx="1574.94" cy="766.253" r="7.2" fill="#009af9" fill-rule="evenodd" fill-opacity="1" stroke="#000000" stroke-opacity="1" stroke-width="3.2"></circle>
<circle clip-path="url(#clip092)" cx="1594.21" cy="777.51" r="7.2" fill="#009af9" fill-rule="evenodd" fill-opacity="1" stroke="#000000" stroke-opacity="1" stroke-width="3.2"></circle>
<circle clip-path="url(#clip092)" cx="1613.93" cy="789.33" r="7.2" fill="#009af9" fill-rule="evenodd" fill-opacity="1" stroke="#000000" stroke-opacity="1" stroke-width="3.2"></circle>
<circle clip-path="url(#clip092)" cx="1634.13" cy="801.749" r="7.2" fill="#009af9" fill-rule="evenodd" fill-opacity="1" stroke="#000000" stroke-opacity="1" stroke-width="3.2"></circle>
<circle clip-path="url(#clip092)" cx="1654.86" cy="814.81" r="7.2" fill="#009af9" fill-rule="evenodd" fill-opacity="1" stroke="#000000" stroke-opacity="1" stroke-width="3.2"></circle>
<circle clip-path="url(#clip092)" cx="1698.09" cy="843.013" r="7.2" fill="#009af9" fill-rule="evenodd" fill-opacity="1" stroke="#000000" stroke-opacity="1" stroke-width="3.2"></circle>
<circle clip-path="url(#clip092)" cx="1720.72" cy="858.233" r="7.2" fill="#009af9" fill-rule="evenodd" fill-opacity="1" stroke="#000000" stroke-opacity="1" stroke-width="3.2"></circle>
<circle clip-path="url(#clip092)" cx="1744.12" cy="874.24" r="7.2" fill="#009af9" fill-rule="evenodd" fill-opacity="1" stroke="#000000" stroke-opacity="1" stroke-width="3.2"></circle>
<circle clip-path="url(#clip092)" cx="1768.39" cy="891.05" r="7.2" fill="#009af9" fill-rule="evenodd" fill-opacity="1" stroke="#000000" stroke-opacity="1" stroke-width="3.2"></circle>
<circle clip-path="url(#clip092)" cx="1793.65" cy="908.653" r="7.2" fill="#009af9" fill-rule="evenodd" fill-opacity="1" stroke="#000000" stroke-opacity="1" stroke-width="3.2"></circle>
<circle clip-path="url(#clip092)" cx="1820.02" cy="926.99" r="7.2" fill="#009af9" fill-rule="evenodd" fill-opacity="1" stroke="#000000" stroke-opacity="1" stroke-width="3.2"></circle>
<circle clip-path="url(#clip092)" cx="1847.7" cy="945.925" r="7.2" fill="#009af9" fill-rule="evenodd" fill-opacity="1" stroke="#000000" stroke-opacity="1" stroke-width="3.2"></circle>
<circle clip-path="url(#clip092)" cx="1876.9" cy="965.178" r="7.2" fill="#009af9" fill-rule="evenodd" fill-opacity="1" stroke="#000000" stroke-opacity="1" stroke-width="3.2"></circle>
<circle clip-path="url(#clip092)" cx="1907.93" cy="984.212" r="7.2" fill="#009af9" fill-rule="evenodd" fill-opacity="1" stroke="#000000" stroke-opacity="1" stroke-width="3.2"></circle>
<circle clip-path="url(#clip092)" cx="1941.2" cy="1002.02" r="7.2" fill="#009af9" fill-rule="evenodd" fill-opacity="1" stroke="#000000" stroke-opacity="1" stroke-width="3.2"></circle>
<circle clip-path="url(#clip092)" cx="1977.31" cy="1016.67" r="7.2" fill="#009af9" fill-rule="evenodd" fill-opacity="1" stroke="#000000" stroke-opacity="1" stroke-width="3.2"></circle>
<circle clip-path="url(#clip092)" cx="2017.17" cy="1024.32" r="7.2" fill="#009af9" fill-rule="evenodd" fill-opacity="1" stroke="#000000" stroke-opacity="1" stroke-width="3.2"></circle>
<circle clip-path="url(#clip092)" cx="2062.32" cy="1016.85" r="7.2" fill="#009af9" fill-rule="evenodd" fill-opacity="1" stroke="#000000" stroke-opacity="1" stroke-width="3.2"></circle>
<circle clip-path="url(#clip092)" cx="2115.77" cy="974.829" r="7.2" fill="#009af9" fill-rule="evenodd" fill-opacity="1" stroke="#000000" stroke-opacity="1" stroke-width="3.2"></circle>
<circle clip-path="url(#clip092)" cx="2185.29" cy="840.206" r="7.2" fill="#009af9" fill-rule="evenodd" fill-opacity="1" stroke="#000000" stroke-opacity="1" stroke-width="3.2"></circle>
<circle clip-path="url(#clip092)" cx="2352.76" cy="47.2441" r="7.2" fill="#009af9" fill-rule="evenodd" fill-opacity="1" stroke="#000000" stroke-opacity="1" stroke-width="3.2"></circle>
<polyline clip-path="url(#clip092)" style="stroke:#e26f46; stroke-linecap:round; stroke-linejoin:round; stroke-width:4; stroke-opacity:1; fill:none" points="249.704,471.121 270.624,471.067 291.55,470.904 312.485,470.632 333.436,470.251 364.903,469.474 385.915,468.82 406.961,468.055 428.046,467.179 459.759,465.657 480.966,464.502 502.232,463.235 523.563,461.853 544.964,460.357 566.442,458.745 598.818,456.107 620.517,454.201 642.317,452.174 664.224,450.026 686.247,447.754 708.393,445.358 730.67,442.834 753.087,440.182 786.996,435.956 809.805,432.971 832.787,429.848 855.955,426.584 879.319,423.177 902.893,419.622 926.689,415.917 950.721,412.056 962.831,410.066 987.247,405.965 1011.94,401.696 1036.93,397.256 1062.23,392.637 1087.87,387.833 1113.87,382.837 1127.01,380.265 1153.6,374.965 1180.62,369.452 1194.3,366.612 1222.03,360.758 1250.27,354.662 1264.6,351.518 1293.71,345.032 1323.46,338.266 1338.59,334.771 1369.42,327.547 1385.13,323.812 1417.19,316.077 1433.57,312.07 1450.2,307.965 1484.26,299.44 1501.72,295.01 1519.5,290.461 1556.09,280.976 1574.94,276.024 1594.21,270.921 1613.93,265.656 1634.13,260.218 1654.86,254.592 1698.09,242.715 1720.72,236.424 1744.12,229.866 1768.39,223.012 1793.65,215.826 1820.02,208.263 1847.7,200.268 1876.9,191.769 1907.93,182.671 1941.2,172.844 1977.31,162.101 2017.17,150.155 2062.32,136.525 2115.77,120.273 2185.29,98.9793 2352.76,47.2441 "></polyline>
<circle clip-path="url(#clip092)" cx="249.704" cy="471.121" r="7.2" fill="#e26f46" fill-rule="evenodd" fill-opacity="1" stroke="#000000" stroke-opacity="1" stroke-width="3.2"></circle>
<circle clip-path="url(#clip092)" cx="270.624" cy="471.067" r="7.2" fill="#e26f46" fill-rule="evenodd" fill-opacity="1" stroke="#000000" stroke-opacity="1" stroke-width="3.2"></circle>
<circle clip-path="url(#clip092)" cx="291.55" cy="470.904" r="7.2" fill="#e26f46" fill-rule="evenodd" fill-opacity="1" stroke="#000000" stroke-opacity="1" stroke-width="3.2"></circle>
<circle clip-path="url(#clip092)" cx="312.485" cy="470.632" r="7.2" fill="#e26f46" fill-rule="evenodd" fill-opacity="1" stroke="#000000" stroke-opacity="1" stroke-width="3.2"></circle>
<circle clip-path="url(#clip092)" cx="333.436" cy="470.251" r="7.2" fill="#e26f46" fill-rule="evenodd" fill-opacity="1" stroke="#000000" stroke-opacity="1" stroke-width="3.2"></circle>
<circle clip-path="url(#clip092)" cx="364.903" cy="469.474" r="7.2" fill="#e26f46" fill-rule="evenodd" fill-opacity="1" stroke="#000000" stroke-opacity="1" stroke-width="3.2"></circle>
<circle clip-path="url(#clip092)" cx="385.915" cy="468.82" r="7.2" fill="#e26f46" fill-rule="evenodd" fill-opacity="1" stroke="#000000" stroke-opacity="1" stroke-width="3.2"></circle>
<circle clip-path="url(#clip092)" cx="406.961" cy="468.055" r="7.2" fill="#e26f46" fill-rule="evenodd" fill-opacity="1" stroke="#000000" stroke-opacity="1" stroke-width="3.2"></circle>
<circle clip-path="url(#clip092)" cx="428.046" cy="467.179" r="7.2" fill="#e26f46" fill-rule="evenodd" fill-opacity="1" stroke="#000000" stroke-opacity="1" stroke-width="3.2"></circle>
<circle clip-path="url(#clip092)" cx="459.759" cy="465.657" r="7.2" fill="#e26f46" fill-rule="evenodd" fill-opacity="1" stroke="#000000" stroke-opacity="1" stroke-width="3.2"></circle>
<circle clip-path="url(#clip092)" cx="480.966" cy="464.502" r="7.2" fill="#e26f46" fill-rule="evenodd" fill-opacity="1" stroke="#000000" stroke-opacity="1" stroke-width="3.2"></circle>
<circle clip-path="url(#clip092)" cx="502.232" cy="463.235" r="7.2" fill="#e26f46" fill-rule="evenodd" fill-opacity="1" stroke="#000000" stroke-opacity="1" stroke-width="3.2"></circle>
<circle clip-path="url(#clip092)" cx="523.563" cy="461.853" r="7.2" fill="#e26f46" fill-rule="evenodd" fill-opacity="1" stroke="#000000" stroke-opacity="1" stroke-width="3.2"></circle>
<circle clip-path="url(#clip092)" cx="544.964" cy="460.357" r="7.2" fill="#e26f46" fill-rule="evenodd" fill-opacity="1" stroke="#000000" stroke-opacity="1" stroke-width="3.2"></circle>
<circle clip-path="url(#clip092)" cx="566.442" cy="458.745" r="7.2" fill="#e26f46" fill-rule="evenodd" fill-opacity="1" stroke="#000000" stroke-opacity="1" stroke-width="3.2"></circle>
<circle clip-path="url(#clip092)" cx="598.818" cy="456.107" r="7.2" fill="#e26f46" fill-rule="evenodd" fill-opacity="1" stroke="#000000" stroke-opacity="1" stroke-width="3.2"></circle>
<circle clip-path="url(#clip092)" cx="620.517" cy="454.201" r="7.2" fill="#e26f46" fill-rule="evenodd" fill-opacity="1" stroke="#000000" stroke-opacity="1" stroke-width="3.2"></circle>
<circle clip-path="url(#clip092)" cx="642.317" cy="452.174" r="7.2" fill="#e26f46" fill-rule="evenodd" fill-opacity="1" stroke="#000000" stroke-opacity="1" stroke-width="3.2"></circle>
<circle clip-path="url(#clip092)" cx="664.224" cy="450.026" r="7.2" fill="#e26f46" fill-rule="evenodd" fill-opacity="1" stroke="#000000" stroke-opacity="1" stroke-width="3.2"></circle>
<circle clip-path="url(#clip092)" cx="686.247" cy="447.754" r="7.2" fill="#e26f46" fill-rule="evenodd" fill-opacity="1" stroke="#000000" stroke-opacity="1" stroke-width="3.2"></circle>
<circle clip-path="url(#clip092)" cx="708.393" cy="445.358" r="7.2" fill="#e26f46" fill-rule="evenodd" fill-opacity="1" stroke="#000000" stroke-opacity="1" stroke-width="3.2"></circle>
<circle clip-path="url(#clip092)" cx="730.67" cy="442.834" r="7.2" fill="#e26f46" fill-rule="evenodd" fill-opacity="1" stroke="#000000" stroke-opacity="1" stroke-width="3.2"></circle>
<circle clip-path="url(#clip092)" cx="753.087" cy="440.182" r="7.2" fill="#e26f46" fill-rule="evenodd" fill-opacity="1" stroke="#000000" stroke-opacity="1" stroke-width="3.2"></circle>
<circle clip-path="url(#clip092)" cx="786.996" cy="435.956" r="7.2" fill="#e26f46" fill-rule="evenodd" fill-opacity="1" stroke="#000000" stroke-opacity="1" stroke-width="3.2"></circle>
<circle clip-path="url(#clip092)" cx="809.805" cy="432.971" r="7.2" fill="#e26f46" fill-rule="evenodd" fill-opacity="1" stroke="#000000" stroke-opacity="1" stroke-width="3.2"></circle>
<circle clip-path="url(#clip092)" cx="832.787" cy="429.848" r="7.2" fill="#e26f46" fill-rule="evenodd" fill-opacity="1" stroke="#000000" stroke-opacity="1" stroke-width="3.2"></circle>
<circle clip-path="url(#clip092)" cx="855.955" cy="426.584" r="7.2" fill="#e26f46" fill-rule="evenodd" fill-opacity="1" stroke="#000000" stroke-opacity="1" stroke-width="3.2"></circle>
<circle clip-path="url(#clip092)" cx="879.319" cy="423.177" r="7.2" fill="#e26f46" fill-rule="evenodd" fill-opacity="1" stroke="#000000" stroke-opacity="1" stroke-width="3.2"></circle>
<circle clip-path="url(#clip092)" cx="902.893" cy="419.622" r="7.2" fill="#e26f46" fill-rule="evenodd" fill-opacity="1" stroke="#000000" stroke-opacity="1" stroke-width="3.2"></circle>
<circle clip-path="url(#clip092)" cx="926.689" cy="415.917" r="7.2" fill="#e26f46" fill-rule="evenodd" fill-opacity="1" stroke="#000000" stroke-opacity="1" stroke-width="3.2"></circle>
<circle clip-path="url(#clip092)" cx="950.721" cy="412.056" r="7.2" fill="#e26f46" fill-rule="evenodd" fill-opacity="1" stroke="#000000" stroke-opacity="1" stroke-width="3.2"></circle>
<circle clip-path="url(#clip092)" cx="962.831" cy="410.066" r="7.2" fill="#e26f46" fill-rule="evenodd" fill-opacity="1" stroke="#000000" stroke-opacity="1" stroke-width="3.2"></circle>
<circle clip-path="url(#clip092)" cx="987.247" cy="405.965" r="7.2" fill="#e26f46" fill-rule="evenodd" fill-opacity="1" stroke="#000000" stroke-opacity="1" stroke-width="3.2"></circle>
<circle clip-path="url(#clip092)" cx="1011.94" cy="401.696" r="7.2" fill="#e26f46" fill-rule="evenodd" fill-opacity="1" stroke="#000000" stroke-opacity="1" stroke-width="3.2"></circle>
<circle clip-path="url(#clip092)" cx="1036.93" cy="397.256" r="7.2" fill="#e26f46" fill-rule="evenodd" fill-opacity="1" stroke="#000000" stroke-opacity="1" stroke-width="3.2"></circle>
<circle clip-path="url(#clip092)" cx="1062.23" cy="392.637" r="7.2" fill="#e26f46" fill-rule="evenodd" fill-opacity="1" stroke="#000000" stroke-opacity="1" stroke-width="3.2"></circle>
<circle clip-path="url(#clip092)" cx="1087.87" cy="387.833" r="7.2" fill="#e26f46" fill-rule="evenodd" fill-opacity="1" stroke="#000000" stroke-opacity="1" stroke-width="3.2"></circle>
<circle clip-path="url(#clip092)" cx="1113.87" cy="382.837" r="7.2" fill="#e26f46" fill-rule="evenodd" fill-opacity="1" stroke="#000000" stroke-opacity="1" stroke-width="3.2"></circle>
<circle clip-path="url(#clip092)" cx="1127.01" cy="380.265" r="7.2" fill="#e26f46" fill-rule="evenodd" fill-opacity="1" stroke="#000000" stroke-opacity="1" stroke-width="3.2"></circle>
<circle clip-path="url(#clip092)" cx="1153.6" cy="374.965" r="7.2" fill="#e26f46" fill-rule="evenodd" fill-opacity="1" stroke="#000000" stroke-opacity="1" stroke-width="3.2"></circle>
<circle clip-path="url(#clip092)" cx="1180.62" cy="369.452" r="7.2" fill="#e26f46" fill-rule="evenodd" fill-opacity="1" stroke="#000000" stroke-opacity="1" stroke-width="3.2"></circle>
<circle clip-path="url(#clip092)" cx="1194.3" cy="366.612" r="7.2" fill="#e26f46" fill-rule="evenodd" fill-opacity="1" stroke="#000000" stroke-opacity="1" stroke-width="3.2"></circle>
<circle clip-path="url(#clip092)" cx="1222.03" cy="360.758" r="7.2" fill="#e26f46" fill-rule="evenodd" fill-opacity="1" stroke="#000000" stroke-opacity="1" stroke-width="3.2"></circle>
<circle clip-path="url(#clip092)" cx="1250.27" cy="354.662" r="7.2" fill="#e26f46" fill-rule="evenodd" fill-opacity="1" stroke="#000000" stroke-opacity="1" stroke-width="3.2"></circle>
<circle clip-path="url(#clip092)" cx="1264.6" cy="351.518" r="7.2" fill="#e26f46" fill-rule="evenodd" fill-opacity="1" stroke="#000000" stroke-opacity="1" stroke-width="3.2"></circle>
<circle clip-path="url(#clip092)" cx="1293.71" cy="345.032" r="7.2" fill="#e26f46" fill-rule="evenodd" fill-opacity="1" stroke="#000000" stroke-opacity="1" stroke-width="3.2"></circle>
<circle clip-path="url(#clip092)" cx="1323.46" cy="338.266" r="7.2" fill="#e26f46" fill-rule="evenodd" fill-opacity="1" stroke="#000000" stroke-opacity="1" stroke-width="3.2"></circle>
<circle clip-path="url(#clip092)" cx="1338.59" cy="334.771" r="7.2" fill="#e26f46" fill-rule="evenodd" fill-opacity="1" stroke="#000000" stroke-opacity="1" stroke-width="3.2"></circle>
<circle clip-path="url(#clip092)" cx="1369.42" cy="327.547" r="7.2" fill="#e26f46" fill-rule="evenodd" fill-opacity="1" stroke="#000000" stroke-opacity="1" stroke-width="3.2"></circle>
<circle clip-path="url(#clip092)" cx="1385.13" cy="323.812" r="7.2" fill="#e26f46" fill-rule="evenodd" fill-opacity="1" stroke="#000000" stroke-opacity="1" stroke-width="3.2"></circle>
<circle clip-path="url(#clip092)" cx="1417.19" cy="316.077" r="7.2" fill="#e26f46" fill-rule="evenodd" fill-opacity="1" stroke="#000000" stroke-opacity="1" stroke-width="3.2"></circle>
<circle clip-path="url(#clip092)" cx="1433.57" cy="312.07" r="7.2" fill="#e26f46" fill-rule="evenodd" fill-opacity="1" stroke="#000000" stroke-opacity="1" stroke-width="3.2"></circle>
<circle clip-path="url(#clip092)" cx="1450.2" cy="307.965" r="7.2" fill="#e26f46" fill-rule="evenodd" fill-opacity="1" stroke="#000000" stroke-opacity="1" stroke-width="3.2"></circle>
<circle clip-path="url(#clip092)" cx="1484.26" cy="299.44" r="7.2" fill="#e26f46" fill-rule="evenodd" fill-opacity="1" stroke="#000000" stroke-opacity="1" stroke-width="3.2"></circle>
<circle clip-path="url(#clip092)" cx="1501.72" cy="295.01" r="7.2" fill="#e26f46" fill-rule="evenodd" fill-opacity="1" stroke="#000000" stroke-opacity="1" stroke-width="3.2"></circle>
<circle clip-path="url(#clip092)" cx="1519.5" cy="290.461" r="7.2" fill="#e26f46" fill-rule="evenodd" fill-opacity="1" stroke="#000000" stroke-opacity="1" stroke-width="3.2"></circle>
<circle clip-path="url(#clip092)" cx="1556.09" cy="280.976" r="7.2" fill="#e26f46" fill-rule="evenodd" fill-opacity="1" stroke="#000000" stroke-opacity="1" stroke-width="3.2"></circle>
<circle clip-path="url(#clip092)" cx="1574.94" cy="276.024" r="7.2" fill="#e26f46" fill-rule="evenodd" fill-opacity="1" stroke="#000000" stroke-opacity="1" stroke-width="3.2"></circle>
<circle clip-path="url(#clip092)" cx="1594.21" cy="270.921" r="7.2" fill="#e26f46" fill-rule="evenodd" fill-opacity="1" stroke="#000000" stroke-opacity="1" stroke-width="3.2"></circle>
<circle clip-path="url(#clip092)" cx="1613.93" cy="265.656" r="7.2" fill="#e26f46" fill-rule="evenodd" fill-opacity="1" stroke="#000000" stroke-opacity="1" stroke-width="3.2"></circle>
<circle clip-path="url(#clip092)" cx="1634.13" cy="260.218" r="7.2" fill="#e26f46" fill-rule="evenodd" fill-opacity="1" stroke="#000000" stroke-opacity="1" stroke-width="3.2"></circle>
<circle clip-path="url(#clip092)" cx="1654.86" cy="254.592" r="7.2" fill="#e26f46" fill-rule="evenodd" fill-opacity="1" stroke="#000000" stroke-opacity="1" stroke-width="3.2"></circle>
<circle clip-path="url(#clip092)" cx="1698.09" cy="242.715" r="7.2" fill="#e26f46" fill-rule="evenodd" fill-opacity="1" stroke="#000000" stroke-opacity="1" stroke-width="3.2"></circle>
<circle clip-path="url(#clip092)" cx="1720.72" cy="236.424" r="7.2" fill="#e26f46" fill-rule="evenodd" fill-opacity="1" stroke="#000000" stroke-opacity="1" stroke-width="3.2"></circle>
<circle clip-path="url(#clip092)" cx="1744.12" cy="229.866" r="7.2" fill="#e26f46" fill-rule="evenodd" fill-opacity="1" stroke="#000000" stroke-opacity="1" stroke-width="3.2"></circle>
<circle clip-path="url(#clip092)" cx="1768.39" cy="223.012" r="7.2" fill="#e26f46" fill-rule="evenodd" fill-opacity="1" stroke="#000000" stroke-opacity="1" stroke-width="3.2"></circle>
<circle clip-path="url(#clip092)" cx="1793.65" cy="215.826" r="7.2" fill="#e26f46" fill-rule="evenodd" fill-opacity="1" stroke="#000000" stroke-opacity="1" stroke-width="3.2"></circle>
<circle clip-path="url(#clip092)" cx="1820.02" cy="208.263" r="7.2" fill="#e26f46" fill-rule="evenodd" fill-opacity="1" stroke="#000000" stroke-opacity="1" stroke-width="3.2"></circle>
<circle clip-path="url(#clip092)" cx="1847.7" cy="200.268" r="7.2" fill="#e26f46" fill-rule="evenodd" fill-opacity="1" stroke="#000000" stroke-opacity="1" stroke-width="3.2"></circle>
<circle clip-path="url(#clip092)" cx="1876.9" cy="191.769" r="7.2" fill="#e26f46" fill-rule="evenodd" fill-opacity="1" stroke="#000000" stroke-opacity="1" stroke-width="3.2"></circle>
<circle clip-path="url(#clip092)" cx="1907.93" cy="182.671" r="7.2" fill="#e26f46" fill-rule="evenodd" fill-opacity="1" stroke="#000000" stroke-opacity="1" stroke-width="3.2"></circle>
<circle clip-path="url(#clip092)" cx="1941.2" cy="172.844" r="7.2" fill="#e26f46" fill-rule="evenodd" fill-opacity="1" stroke="#000000" stroke-opacity="1" stroke-width="3.2"></circle>
<circle clip-path="url(#clip092)" cx="1977.31" cy="162.101" r="7.2" fill="#e26f46" fill-rule="evenodd" fill-opacity="1" stroke="#000000" stroke-opacity="1" stroke-width="3.2"></circle>
<circle clip-path="url(#clip092)" cx="2017.17" cy="150.155" r="7.2" fill="#e26f46" fill-rule="evenodd" fill-opacity="1" stroke="#000000" stroke-opacity="1" stroke-width="3.2"></circle>
<circle clip-path="url(#clip092)" cx="2062.32" cy="136.525" r="7.2" fill="#e26f46" fill-rule="evenodd" fill-opacity="1" stroke="#000000" stroke-opacity="1" stroke-width="3.2"></circle>
<circle clip-path="url(#clip092)" cx="2115.77" cy="120.273" r="7.2" fill="#e26f46" fill-rule="evenodd" fill-opacity="1" stroke="#000000" stroke-opacity="1" stroke-width="3.2"></circle>
<circle clip-path="url(#clip092)" cx="2185.29" cy="98.9793" r="7.2" fill="#e26f46" fill-rule="evenodd" fill-opacity="1" stroke="#000000" stroke-opacity="1" stroke-width="3.2"></circle>
<circle clip-path="url(#clip092)" cx="2352.76" cy="47.2441" r="7.2" fill="#e26f46" fill-rule="evenodd" fill-opacity="1" stroke="#000000" stroke-opacity="1" stroke-width="3.2"></circle>
<polyline clip-path="url(#clip092)" style="stroke:#000000; stroke-linecap:round; stroke-linejoin:round; stroke-width:4; stroke-opacity:1; fill:none" stroke-dasharray="16, 10" points="249.704,47.2441 2352.76,47.2441 "></polyline>
<path clip-path="url(#clip090)" d="M1950.22 1377.32 L2282.65 1377.32 L2282.65 1221.8 L1950.22 1221.8  Z" fill="#ffffff" fill-rule="evenodd" fill-opacity="1"></path>
<polyline clip-path="url(#clip090)" style="stroke:#000000; stroke-linecap:round; stroke-linejoin:round; stroke-width:4; stroke-opacity:1; fill:none" points="1950.22,1377.32 2282.65,1377.32 2282.65,1221.8 1950.22,1221.8 1950.22,1377.32 "></polyline>
<polyline clip-path="url(#clip090)" style="stroke:#009af9; stroke-linecap:round; stroke-linejoin:round; stroke-width:4; stroke-opacity:1; fill:none" points="1973.59,1273.64 2113.79,1273.64 "></polyline>
<circle clip-path="url(#clip090)" cx="2043.69" cy="1273.64" r="18.432" fill="#009af9" fill-rule="evenodd" fill-opacity="1" stroke="#000000" stroke-opacity="1" stroke-width="8.192"></circle>
<path clip-path="url(#clip090)" d="M2145.07 1290.92 L2137.16 1264.99 L2141.74 1264.99 L2148.43 1286.75 Q2151.21 1283.88 2153.52 1279.9 Q2155.28 1276.91 2155.38 1274.32 Q2155.42 1273.09 2154.87 1270.78 Q2154.22 1268.02 2151.76 1264.99 L2156.07 1264.99 L2156.07 1264.99 Q2157.67 1267.05 2158.73 1269.92 Q2159.7 1272.56 2159.7 1274.36 Q2159.7 1278.9 2156.56 1282.95 Q2152.46 1288.23 2149.61 1290.92 L2145.07 1290.92 Z" fill="#000000" fill-rule="nonzero" fill-opacity="1"></path><path clip-path="url(#clip090)" d="M2182.02 1269.39 L2211.69 1269.39 L2211.69 1273.28 L2182.02 1273.28 L2182.02 1269.39 M2182.02 1278.83 L2211.69 1278.83 L2211.69 1282.77 L2182.02 1282.77 L2182.02 1278.83 Z" fill="#000000" fill-rule="nonzero" fill-opacity="1"></path><path clip-path="url(#clip090)" d="M2240.37 1287.03 L2240.37 1300.78 L2236.09 1300.78 L2236.09 1264.99 L2240.37 1264.99 L2240.37 1268.92 Q2241.72 1266.61 2243.75 1265.5 Q2245.81 1264.36 2248.66 1264.36 Q2253.38 1264.36 2256.32 1268.11 Q2259.29 1271.86 2259.29 1277.98 Q2259.29 1284.09 2256.32 1287.84 Q2253.38 1291.59 2248.66 1291.59 Q2245.81 1291.59 2243.75 1290.48 Q2241.72 1289.34 2240.37 1287.03 M2254.87 1277.98 Q2254.87 1273.28 2252.92 1270.61 Q2251 1267.93 2247.62 1267.93 Q2244.24 1267.93 2242.3 1270.61 Q2240.37 1273.28 2240.37 1277.98 Q2240.37 1282.67 2242.3 1285.36 Q2244.24 1288.02 2247.62 1288.02 Q2251 1288.02 2252.92 1285.36 Q2254.87 1282.67 2254.87 1277.98 Z" fill="#000000" fill-rule="nonzero" fill-opacity="1"></path><polyline clip-path="url(#clip090)" style="stroke:#e26f46; stroke-linecap:round; stroke-linejoin:round; stroke-width:4; stroke-opacity:1; fill:none" points="1973.59,1325.48 2113.79,1325.48 "></polyline>
<circle clip-path="url(#clip090)" cx="2043.69" cy="1325.48" r="18.432" fill="#e26f46" fill-rule="evenodd" fill-opacity="1" stroke="#000000" stroke-opacity="1" stroke-width="8.192"></circle>
<path clip-path="url(#clip090)" d="M2145.07 1342.76 L2137.16 1316.83 L2141.74 1316.83 L2148.43 1338.59 Q2151.21 1335.72 2153.52 1331.74 Q2155.28 1328.75 2155.38 1326.16 Q2155.42 1324.93 2154.87 1322.62 Q2154.22 1319.86 2151.76 1316.83 L2156.07 1316.83 L2156.07 1316.83 Q2157.67 1318.89 2158.73 1321.76 Q2159.7 1324.4 2159.7 1326.2 Q2159.7 1330.74 2156.56 1334.79 Q2152.46 1340.07 2149.61 1342.76 L2145.07 1342.76 Z" fill="#000000" fill-rule="nonzero" fill-opacity="1"></path><path clip-path="url(#clip090)" d="M2182.02 1321.23 L2211.69 1321.23 L2211.69 1325.12 L2182.02 1325.12 L2182.02 1321.23 M2182.02 1330.67 L2211.69 1330.67 L2211.69 1334.61 L2182.02 1334.61 L2182.02 1330.67 Z" fill="#000000" fill-rule="nonzero" fill-opacity="1"></path><path clip-path="url(#clip090)" d="M2252.78 1317.59 L2252.78 1321.62 Q2250.98 1320.7 2249.03 1320.23 Q2247.09 1319.77 2245 1319.77 Q2241.83 1319.77 2240.24 1320.74 Q2238.66 1321.71 2238.66 1323.66 Q2238.66 1325.14 2239.8 1326 Q2240.93 1326.83 2244.36 1327.59 L2245.81 1327.92 Q2250.35 1328.89 2252.25 1330.67 Q2254.17 1332.43 2254.17 1335.6 Q2254.17 1339.21 2251.3 1341.32 Q2248.45 1343.43 2243.45 1343.43 Q2241.37 1343.43 2239.1 1343.01 Q2236.86 1342.62 2234.36 1341.81 L2234.36 1337.41 Q2236.72 1338.63 2239.01 1339.26 Q2241.3 1339.86 2243.55 1339.86 Q2246.56 1339.86 2248.18 1338.84 Q2249.8 1337.8 2249.8 1335.93 Q2249.8 1334.19 2248.62 1333.26 Q2247.46 1332.34 2243.5 1331.48 L2242.02 1331.14 Q2238.06 1330.3 2236.3 1328.59 Q2234.54 1326.85 2234.54 1323.84 Q2234.54 1320.19 2237.13 1318.2 Q2239.73 1316.2 2244.5 1316.2 Q2246.86 1316.2 2248.94 1316.55 Q2251.02 1316.9 2252.78 1317.59 Z" fill="#000000" fill-rule="nonzero" fill-opacity="1"></path></svg>